# xmcd
#
# Track frame offsets:
#	183
#	14508
#	25858
#	38883
#	51308
#	64258
#	76908
#	85533
#	99358
#	110908
#	120983
#	133883
#	143233
#
# Disc length: 2076
#
# Revision: 3
# Processed by: cddbd v1.5.1PL0 Copyright (c) Steve Scherf et al.
# Submitted via: EasyCDDAExtractor 6.5.2.1
# Normalized: r2:DSETVAR1
#
DISCID=ac081a0d
DTITLE=Various Artist - Country and Western - Disc 1
DYEAR=1988
DGENRE=Country
TTITLE0=Tex Ritter - Night Herding Song
TTITLE1=Sonny James - Jenny Lou
TTITLE2=Roy Acuff - Were You There
TTITLE3=Don Gibson - Run Boy
TTITLE4=Jimmy Reed - Let's Get Together
TTITLE5=Jonny Cash - Folsom Prison Blues
TTITLE6=Conway Twitty - Blue Is The Way That I Feel
TTITLE7=Willie Nelson - Home Is Were Your Happy
TTITLE8=Patsy Cline - I've Loved and Lost Again
TTITLE9=Faron Young - Hello Walls
TTITLE10=Don Williams - Where Do We Go From Here?
TTITLE11=George Jones - Worlds Worst Loser
TTITLE12=Johnny Paycheck - Georgis In A Jug
EXTD=Regal Fernseher Nr.8
EXTT0=
EXTT1=
EXTT2=
EXTT3=
EXTT4=
EXTT5=
EXTT6=
EXTT7=
EXTT8=
EXTT9=
EXTT10=
EXTT11=
EXTT12=
PLAYORDER=
